<mxfile host="app.diagrams.net" modified="2023-09-16T12:29:09.001Z" agent="Mozilla/5.0 (Windows NT 10.0; Win64; x64) AppleWebKit/537.36 (KHTML, like Gecko) Chrome/116.0.0.0 Safari/537.36 Edg/116.0.1938.81" etag="DhF7J7h45mzOwJMPXcOt" version="21.7.4" type="github">
  <diagram name="第 1 页" id="aq9NHD4o_157xsU_8mPB">
    <mxGraphModel dx="1658" dy="659" grid="0" gridSize="10" guides="1" tooltips="1" connect="1" arrows="1" fold="1" page="1" pageScale="1" pageWidth="827" pageHeight="1169" math="0" shadow="0">
      <root>
        <mxCell id="0" />
        <mxCell id="1" parent="0" />
        <mxCell id="B_Na2INnCVECL0KGW9Hh-191" style="edgeStyle=none;rounded=0;orthogonalLoop=1;jettySize=auto;html=1;exitX=0.5;exitY=1;exitDx=0;exitDy=0;fontFamily=Helvetica;fontSize=12;fontColor=default;strokeWidth=2;strokeColor=#A2F1EC;" edge="1" parent="1" source="B_Na2INnCVECL0KGW9Hh-175" target="B_Na2INnCVECL0KGW9Hh-180">
          <mxGeometry relative="1" as="geometry" />
        </mxCell>
        <mxCell id="B_Na2INnCVECL0KGW9Hh-77" value="" style="group" vertex="1" connectable="0" parent="1">
          <mxGeometry x="70" y="224" width="110" height="312" as="geometry" />
        </mxCell>
        <mxCell id="B_Na2INnCVECL0KGW9Hh-20" value="" style="group" vertex="1" connectable="0" parent="B_Na2INnCVECL0KGW9Hh-77">
          <mxGeometry y="192" width="110" height="120" as="geometry" />
        </mxCell>
        <mxCell id="B_Na2INnCVECL0KGW9Hh-2" value="" style="rounded=1;whiteSpace=wrap;html=1;strokeColor=#b4f207;" vertex="1" parent="B_Na2INnCVECL0KGW9Hh-20">
          <mxGeometry width="110" height="120" as="geometry" />
        </mxCell>
        <mxCell id="B_Na2INnCVECL0KGW9Hh-12" value="" style="triangle;whiteSpace=wrap;html=1;rotation=-90;strokeColor=#11EE87;" vertex="1" parent="B_Na2INnCVECL0KGW9Hh-20">
          <mxGeometry x="10" y="40" width="20" height="24" as="geometry" />
        </mxCell>
        <mxCell id="B_Na2INnCVECL0KGW9Hh-13" value="&lt;font face=&quot;Times New Roman&quot;&gt;&lt;b&gt;Mobility Info&lt;/b&gt;&lt;/font&gt;" style="text;strokeColor=none;align=center;fillColor=none;html=1;verticalAlign=middle;whiteSpace=wrap;rounded=0;" vertex="1" parent="B_Na2INnCVECL0KGW9Hh-20">
          <mxGeometry x="10" width="90" height="30" as="geometry" />
        </mxCell>
        <mxCell id="B_Na2INnCVECL0KGW9Hh-14" value="" style="triangle;whiteSpace=wrap;html=1;rotation=-90;strokeColor=#FF230A;" vertex="1" parent="B_Na2INnCVECL0KGW9Hh-20">
          <mxGeometry x="45" y="40" width="20" height="24" as="geometry" />
        </mxCell>
        <mxCell id="B_Na2INnCVECL0KGW9Hh-15" value="" style="triangle;whiteSpace=wrap;html=1;rotation=-90;strokeColor=#E2F109;" vertex="1" parent="B_Na2INnCVECL0KGW9Hh-20">
          <mxGeometry x="10" y="80" width="20" height="24" as="geometry" />
        </mxCell>
        <mxCell id="B_Na2INnCVECL0KGW9Hh-16" value="" style="triangle;whiteSpace=wrap;html=1;rotation=-90;strokeColor=#111FEE;" vertex="1" parent="B_Na2INnCVECL0KGW9Hh-20">
          <mxGeometry x="45" y="80" width="20" height="24" as="geometry" />
        </mxCell>
        <mxCell id="B_Na2INnCVECL0KGW9Hh-17" value="" style="triangle;whiteSpace=wrap;html=1;rotation=-90;strokeColor=#04CAF1;" vertex="1" parent="B_Na2INnCVECL0KGW9Hh-20">
          <mxGeometry x="80" y="40" width="20" height="24" as="geometry" />
        </mxCell>
        <mxCell id="B_Na2INnCVECL0KGW9Hh-18" value="" style="triangle;whiteSpace=wrap;html=1;rotation=-90;strokeColor=#EE11B3;" vertex="1" parent="B_Na2INnCVECL0KGW9Hh-20">
          <mxGeometry x="80" y="80" width="20" height="24" as="geometry" />
        </mxCell>
        <mxCell id="B_Na2INnCVECL0KGW9Hh-23" value="" style="rounded=1;whiteSpace=wrap;html=1;strokeColor=#B4F207;" vertex="1" parent="B_Na2INnCVECL0KGW9Hh-77">
          <mxGeometry width="110" height="180" as="geometry" />
        </mxCell>
        <mxCell id="B_Na2INnCVECL0KGW9Hh-55" value="" style="group" vertex="1" connectable="0" parent="B_Na2INnCVECL0KGW9Hh-77">
          <mxGeometry x="17" y="4" width="80" height="120" as="geometry" />
        </mxCell>
        <mxCell id="B_Na2INnCVECL0KGW9Hh-56" value="" style="shape=flexArrow;endArrow=classic;html=1;rounded=1;fillColor=#A2F1EC;strokeColor=#A2F1EC;endWidth=8.4;endSize=2;" edge="1" parent="B_Na2INnCVECL0KGW9Hh-55">
          <mxGeometry width="50" height="50" relative="1" as="geometry">
            <mxPoint x="39.80000000000001" y="110" as="sourcePoint" />
            <mxPoint x="39.80000000000001" y="120" as="targetPoint" />
          </mxGeometry>
        </mxCell>
        <mxCell id="B_Na2INnCVECL0KGW9Hh-57" value="" style="group" vertex="1" connectable="0" parent="B_Na2INnCVECL0KGW9Hh-55">
          <mxGeometry width="80" height="110" as="geometry" />
        </mxCell>
        <mxCell id="B_Na2INnCVECL0KGW9Hh-62" value="" style="group" vertex="1" connectable="0" parent="B_Na2INnCVECL0KGW9Hh-57">
          <mxGeometry y="40" width="80" height="30" as="geometry" />
        </mxCell>
        <mxCell id="B_Na2INnCVECL0KGW9Hh-63" value="" style="rounded=1;whiteSpace=wrap;html=1;fillColor=#A2F1EC;strokeColor=#A2F1EC;" vertex="1" parent="B_Na2INnCVECL0KGW9Hh-62">
          <mxGeometry width="80" height="30" as="geometry" />
        </mxCell>
        <mxCell id="B_Na2INnCVECL0KGW9Hh-64" value="Data Processing" style="text;strokeColor=none;align=center;fillColor=none;html=1;verticalAlign=middle;whiteSpace=wrap;rounded=0;" vertex="1" parent="B_Na2INnCVECL0KGW9Hh-62">
          <mxGeometry x="10" width="60" height="30" as="geometry" />
        </mxCell>
        <mxCell id="B_Na2INnCVECL0KGW9Hh-65" value="" style="group" vertex="1" connectable="0" parent="B_Na2INnCVECL0KGW9Hh-57">
          <mxGeometry y="80" width="80" height="30" as="geometry" />
        </mxCell>
        <mxCell id="B_Na2INnCVECL0KGW9Hh-66" value="" style="rounded=1;whiteSpace=wrap;html=1;fillColor=#A2F1EC;strokeColor=#A2F1EC;" vertex="1" parent="B_Na2INnCVECL0KGW9Hh-65">
          <mxGeometry width="80" height="30" as="geometry" />
        </mxCell>
        <mxCell id="B_Na2INnCVECL0KGW9Hh-67" value="Feature Extraction" style="text;strokeColor=none;align=center;fillColor=none;html=1;verticalAlign=middle;whiteSpace=wrap;rounded=0;" vertex="1" parent="B_Na2INnCVECL0KGW9Hh-65">
          <mxGeometry x="10" width="60" height="30" as="geometry" />
        </mxCell>
        <mxCell id="B_Na2INnCVECL0KGW9Hh-68" value="" style="shape=flexArrow;endArrow=classic;html=1;rounded=1;fillColor=#A2F1EC;strokeColor=#A2F1EC;endWidth=8.4;endSize=2;" edge="1" parent="B_Na2INnCVECL0KGW9Hh-65">
          <mxGeometry width="50" height="50" relative="1" as="geometry">
            <mxPoint x="39.80000000000001" y="-10" as="sourcePoint" />
            <mxPoint x="39.80000000000001" as="targetPoint" />
          </mxGeometry>
        </mxCell>
        <mxCell id="B_Na2INnCVECL0KGW9Hh-59" value="" style="rounded=1;whiteSpace=wrap;html=1;fillColor=#a2f1ec;strokeColor=#A2F1EC;" vertex="1" parent="B_Na2INnCVECL0KGW9Hh-57">
          <mxGeometry width="80" height="30" as="geometry" />
        </mxCell>
        <mxCell id="B_Na2INnCVECL0KGW9Hh-60" value="Raw Data" style="text;strokeColor=none;align=center;fillColor=none;html=1;verticalAlign=middle;whiteSpace=wrap;rounded=0;" vertex="1" parent="B_Na2INnCVECL0KGW9Hh-57">
          <mxGeometry x="10" width="60" height="30" as="geometry" />
        </mxCell>
        <mxCell id="B_Na2INnCVECL0KGW9Hh-61" value="" style="shape=flexArrow;endArrow=classic;html=1;rounded=1;fillColor=#A2F1EC;strokeColor=#A2F1EC;endWidth=8.4;endSize=2;" edge="1" parent="B_Na2INnCVECL0KGW9Hh-57">
          <mxGeometry width="50" height="50" relative="1" as="geometry">
            <mxPoint x="39.80000000000001" y="30" as="sourcePoint" />
            <mxPoint x="39.80000000000001" y="40" as="targetPoint" />
          </mxGeometry>
        </mxCell>
        <mxCell id="B_Na2INnCVECL0KGW9Hh-71" value="&lt;font style=&quot;font-size: 10px;&quot; face=&quot;Times New Roman&quot;&gt;&lt;span style=&quot;font-size: 10px;&quot;&gt;p&lt;/span&gt;&lt;sub style=&quot;font-size: 10px;&quot;&gt;1&lt;/sub&gt;&lt;/font&gt;" style="whiteSpace=wrap;html=1;aspect=fixed;rounded=1;strokeColor=#A2F1EC;fillColor=#A2F1EC;" vertex="1" parent="B_Na2INnCVECL0KGW9Hh-77">
          <mxGeometry x="27" y="124" width="16.877028489001084" height="16.877028489001084" as="geometry" />
        </mxCell>
        <mxCell id="B_Na2INnCVECL0KGW9Hh-72" value="&lt;font face=&quot;Times New Roman&quot;&gt;p&lt;sub&gt;2&lt;/sub&gt;&lt;/font&gt;" style="whiteSpace=wrap;html=1;aspect=fixed;rounded=1;strokeColor=#A2F1EC;fillColor=#A2F1EC;" vertex="1" parent="B_Na2INnCVECL0KGW9Hh-77">
          <mxGeometry x="41.73684210526315" y="137.5593220338983" width="16.877028489001084" height="16.877028489001084" as="geometry" />
        </mxCell>
        <mxCell id="B_Na2INnCVECL0KGW9Hh-73" value="&lt;font face=&quot;Times New Roman&quot;&gt;p&lt;sub&gt;n&lt;/sub&gt;&lt;/font&gt;" style="whiteSpace=wrap;html=1;aspect=fixed;rounded=1;strokeColor=#A2F1EC;fillColor=#A2F1EC;" vertex="1" parent="B_Na2INnCVECL0KGW9Hh-77">
          <mxGeometry x="65.94736842105263" y="157.05084745762713" width="16.877028489001084" height="16.877028489001084" as="geometry" />
        </mxCell>
        <mxCell id="B_Na2INnCVECL0KGW9Hh-75" value="..." style="text;strokeColor=none;align=center;fillColor=none;html=1;verticalAlign=middle;whiteSpace=wrap;rounded=0;rotation=40;" vertex="1" parent="B_Na2INnCVECL0KGW9Hh-77">
          <mxGeometry x="46.99789473684211" y="154.43847457627112" width="25.263157894736846" height="4.237288135593221" as="geometry" />
        </mxCell>
        <mxCell id="B_Na2INnCVECL0KGW9Hh-76" value="" style="shape=flexArrow;endArrow=classic;html=1;rounded=0;fontFamily=Helvetica;fontSize=12;fontColor=default;strokeColor=#0af1f5;fillColor=#09F6F2;" edge="1" parent="B_Na2INnCVECL0KGW9Hh-77">
          <mxGeometry width="50" height="50" relative="1" as="geometry">
            <mxPoint x="50.03999999999999" y="198" as="sourcePoint" />
            <mxPoint x="50.03999999999999" y="169" as="targetPoint" />
          </mxGeometry>
        </mxCell>
        <mxCell id="B_Na2INnCVECL0KGW9Hh-78" value="" style="group" vertex="1" connectable="0" parent="1">
          <mxGeometry x="67.5" y="556" width="115" height="318" as="geometry" />
        </mxCell>
        <mxCell id="B_Na2INnCVECL0KGW9Hh-19" value="" style="group" vertex="1" connectable="0" parent="B_Na2INnCVECL0KGW9Hh-78">
          <mxGeometry y="193" width="115" height="125" as="geometry" />
        </mxCell>
        <mxCell id="B_Na2INnCVECL0KGW9Hh-1" value="" style="rounded=1;whiteSpace=wrap;html=1;strokeColor=#09f6f2;" vertex="1" parent="B_Na2INnCVECL0KGW9Hh-19">
          <mxGeometry width="110" height="120" as="geometry" />
        </mxCell>
        <mxCell id="B_Na2INnCVECL0KGW9Hh-5" value="" style="ellipse;whiteSpace=wrap;html=1;aspect=fixed;strokeColor=#11EE87;" vertex="1" parent="B_Na2INnCVECL0KGW9Hh-19">
          <mxGeometry x="10" y="40" width="24" height="24" as="geometry" />
        </mxCell>
        <mxCell id="B_Na2INnCVECL0KGW9Hh-6" value="" style="ellipse;whiteSpace=wrap;html=1;aspect=fixed;strokeColor=#e2f109;" vertex="1" parent="B_Na2INnCVECL0KGW9Hh-19">
          <mxGeometry x="10" y="80" width="24" height="24" as="geometry" />
        </mxCell>
        <mxCell id="B_Na2INnCVECL0KGW9Hh-7" value="" style="ellipse;whiteSpace=wrap;html=1;aspect=fixed;strokeColor=#ff230a;" vertex="1" parent="B_Na2INnCVECL0KGW9Hh-19">
          <mxGeometry x="44" y="40" width="24" height="24" as="geometry" />
        </mxCell>
        <mxCell id="B_Na2INnCVECL0KGW9Hh-8" value="" style="ellipse;whiteSpace=wrap;html=1;aspect=fixed;strokeColor=#04caf1;" vertex="1" parent="B_Na2INnCVECL0KGW9Hh-19">
          <mxGeometry x="80" y="40" width="24" height="24" as="geometry" />
        </mxCell>
        <mxCell id="B_Na2INnCVECL0KGW9Hh-9" value="" style="ellipse;whiteSpace=wrap;html=1;aspect=fixed;strokeColor=#ee11b3;" vertex="1" parent="B_Na2INnCVECL0KGW9Hh-19">
          <mxGeometry x="80" y="80" width="24" height="24" as="geometry" />
        </mxCell>
        <mxCell id="B_Na2INnCVECL0KGW9Hh-10" value="" style="ellipse;whiteSpace=wrap;html=1;aspect=fixed;strokeColor=#111fee;" vertex="1" parent="B_Na2INnCVECL0KGW9Hh-19">
          <mxGeometry x="44" y="80" width="24" height="24" as="geometry" />
        </mxCell>
        <mxCell id="B_Na2INnCVECL0KGW9Hh-11" value="&lt;font face=&quot;Times New Roman&quot;&gt;&lt;b&gt;Service Requests&lt;/b&gt;&lt;/font&gt;" style="text;strokeColor=none;align=center;fillColor=none;html=1;verticalAlign=middle;whiteSpace=wrap;rounded=0;" vertex="1" parent="B_Na2INnCVECL0KGW9Hh-19">
          <mxGeometry x="10" width="90" height="30" as="geometry" />
        </mxCell>
        <mxCell id="B_Na2INnCVECL0KGW9Hh-21" value="" style="rounded=1;whiteSpace=wrap;html=1;strokeColor=#09F6F2;" vertex="1" parent="B_Na2INnCVECL0KGW9Hh-78">
          <mxGeometry width="110" height="181" as="geometry" />
        </mxCell>
        <mxCell id="B_Na2INnCVECL0KGW9Hh-42" value="" style="group" vertex="1" connectable="0" parent="B_Na2INnCVECL0KGW9Hh-78">
          <mxGeometry x="25" y="125" width="60" height="50" as="geometry" />
        </mxCell>
        <mxCell id="B_Na2INnCVECL0KGW9Hh-37" value="&lt;font style=&quot;font-size: 10px;&quot; face=&quot;Times New Roman&quot;&gt;q&lt;sub style=&quot;font-size: 10px;&quot;&gt;1&lt;/sub&gt;&lt;/font&gt;" style="whiteSpace=wrap;html=1;aspect=fixed;rounded=1;strokeColor=#A9E889;fillColor=#A9E889;" vertex="1" parent="B_Na2INnCVECL0KGW9Hh-42">
          <mxGeometry width="16.877028489001084" height="16.877028489001084" as="geometry" />
        </mxCell>
        <mxCell id="B_Na2INnCVECL0KGW9Hh-38" value="&lt;font face=&quot;Times New Roman&quot;&gt;q&lt;sub&gt;2&lt;/sub&gt;&lt;/font&gt;" style="whiteSpace=wrap;html=1;aspect=fixed;rounded=1;strokeColor=#A9E889;fillColor=#A9E889;" vertex="1" parent="B_Na2INnCVECL0KGW9Hh-42">
          <mxGeometry x="14.736842105263158" y="13.559322033898306" width="16.877028489001084" height="16.877028489001084" as="geometry" />
        </mxCell>
        <mxCell id="B_Na2INnCVECL0KGW9Hh-39" value="&lt;font face=&quot;Times New Roman&quot;&gt;q&lt;sub&gt;n&lt;/sub&gt;&lt;/font&gt;" style="whiteSpace=wrap;html=1;aspect=fixed;rounded=1;strokeColor=#A9E889;fillColor=#A9E889;" vertex="1" parent="B_Na2INnCVECL0KGW9Hh-42">
          <mxGeometry x="38.94736842105264" y="33.05084745762712" width="16.877028489001084" height="16.877028489001084" as="geometry" />
        </mxCell>
        <mxCell id="B_Na2INnCVECL0KGW9Hh-40" value="..." style="text;strokeColor=none;align=center;fillColor=none;html=1;verticalAlign=middle;whiteSpace=wrap;rounded=0;rotation=40;" vertex="1" parent="B_Na2INnCVECL0KGW9Hh-42">
          <mxGeometry x="23.157894736842106" y="30.50847457627119" width="25.263157894736846" height="4.237288135593221" as="geometry" />
        </mxCell>
        <mxCell id="B_Na2INnCVECL0KGW9Hh-48" value="" style="group" vertex="1" connectable="0" parent="B_Na2INnCVECL0KGW9Hh-78">
          <mxGeometry x="15" y="5" width="80" height="120" as="geometry" />
        </mxCell>
        <mxCell id="B_Na2INnCVECL0KGW9Hh-36" value="" style="shape=flexArrow;endArrow=classic;html=1;rounded=1;fillColor=#A9E889;strokeColor=#82b366;endWidth=8.4;endSize=2;" edge="1" parent="B_Na2INnCVECL0KGW9Hh-48">
          <mxGeometry width="50" height="50" relative="1" as="geometry">
            <mxPoint x="39.80000000000001" y="110" as="sourcePoint" />
            <mxPoint x="39.80000000000001" y="120" as="targetPoint" />
          </mxGeometry>
        </mxCell>
        <mxCell id="B_Na2INnCVECL0KGW9Hh-47" value="" style="group" vertex="1" connectable="0" parent="B_Na2INnCVECL0KGW9Hh-48">
          <mxGeometry width="80" height="110" as="geometry" />
        </mxCell>
        <mxCell id="B_Na2INnCVECL0KGW9Hh-26" value="" style="group" vertex="1" connectable="0" parent="B_Na2INnCVECL0KGW9Hh-47">
          <mxGeometry width="80" height="30" as="geometry" />
        </mxCell>
        <mxCell id="B_Na2INnCVECL0KGW9Hh-24" value="" style="rounded=1;whiteSpace=wrap;html=1;fillColor=#A9E889;strokeColor=#98D177;" vertex="1" parent="B_Na2INnCVECL0KGW9Hh-26">
          <mxGeometry width="80" height="30" as="geometry" />
        </mxCell>
        <mxCell id="B_Na2INnCVECL0KGW9Hh-25" value="Raw Data" style="text;strokeColor=none;align=center;fillColor=none;html=1;verticalAlign=middle;whiteSpace=wrap;rounded=0;" vertex="1" parent="B_Na2INnCVECL0KGW9Hh-26">
          <mxGeometry x="10" width="60" height="30" as="geometry" />
        </mxCell>
        <mxCell id="B_Na2INnCVECL0KGW9Hh-34" value="" style="shape=flexArrow;endArrow=classic;html=1;rounded=1;fillColor=#A9E889;strokeColor=#82b366;endWidth=8.4;endSize=2;" edge="1" parent="B_Na2INnCVECL0KGW9Hh-26">
          <mxGeometry width="50" height="50" relative="1" as="geometry">
            <mxPoint x="39.80000000000001" y="30" as="sourcePoint" />
            <mxPoint x="39.80000000000001" y="40" as="targetPoint" />
          </mxGeometry>
        </mxCell>
        <mxCell id="B_Na2INnCVECL0KGW9Hh-27" value="" style="group" vertex="1" connectable="0" parent="B_Na2INnCVECL0KGW9Hh-47">
          <mxGeometry y="40" width="80" height="30" as="geometry" />
        </mxCell>
        <mxCell id="B_Na2INnCVECL0KGW9Hh-28" value="" style="rounded=1;whiteSpace=wrap;html=1;fillColor=#A9E889;strokeColor=#98D177;" vertex="1" parent="B_Na2INnCVECL0KGW9Hh-27">
          <mxGeometry width="80" height="30" as="geometry" />
        </mxCell>
        <mxCell id="B_Na2INnCVECL0KGW9Hh-29" value="Data Processing" style="text;strokeColor=none;align=center;fillColor=none;html=1;verticalAlign=middle;whiteSpace=wrap;rounded=0;" vertex="1" parent="B_Na2INnCVECL0KGW9Hh-27">
          <mxGeometry x="10" width="60" height="30" as="geometry" />
        </mxCell>
        <mxCell id="B_Na2INnCVECL0KGW9Hh-30" value="" style="group" vertex="1" connectable="0" parent="B_Na2INnCVECL0KGW9Hh-47">
          <mxGeometry y="80" width="80" height="30" as="geometry" />
        </mxCell>
        <mxCell id="B_Na2INnCVECL0KGW9Hh-31" value="" style="rounded=1;whiteSpace=wrap;html=1;fillColor=#A9E889;strokeColor=#98D177;" vertex="1" parent="B_Na2INnCVECL0KGW9Hh-30">
          <mxGeometry width="80" height="30" as="geometry" />
        </mxCell>
        <mxCell id="B_Na2INnCVECL0KGW9Hh-32" value="Feature Extraction" style="text;strokeColor=none;align=center;fillColor=none;html=1;verticalAlign=middle;whiteSpace=wrap;rounded=0;" vertex="1" parent="B_Na2INnCVECL0KGW9Hh-30">
          <mxGeometry x="10" width="60" height="30" as="geometry" />
        </mxCell>
        <mxCell id="B_Na2INnCVECL0KGW9Hh-35" value="" style="shape=flexArrow;endArrow=classic;html=1;rounded=1;fillColor=#A9E889;strokeColor=#82b366;endWidth=8.4;endSize=2;" edge="1" parent="B_Na2INnCVECL0KGW9Hh-30">
          <mxGeometry width="50" height="50" relative="1" as="geometry">
            <mxPoint x="39.80000000000001" y="-10" as="sourcePoint" />
            <mxPoint x="39.80000000000001" as="targetPoint" />
          </mxGeometry>
        </mxCell>
        <mxCell id="B_Na2INnCVECL0KGW9Hh-53" value="" style="shape=flexArrow;endArrow=classic;html=1;rounded=0;fontFamily=Helvetica;fontSize=12;fontColor=default;strokeColor=#A9E889;fillColor=#A9E889;" edge="1" parent="B_Na2INnCVECL0KGW9Hh-78">
          <mxGeometry width="50" height="50" relative="1" as="geometry">
            <mxPoint x="52" y="198" as="sourcePoint" />
            <mxPoint x="52" y="169" as="targetPoint" />
          </mxGeometry>
        </mxCell>
        <mxCell id="B_Na2INnCVECL0KGW9Hh-81" value="" style="rounded=1;whiteSpace=wrap;html=1;strokeWidth=1;fontFamily=Helvetica;fontSize=12;fontColor=default;fillColor=none;gradientColor=none;strokeColor=#0D9EFF;" vertex="1" parent="1">
          <mxGeometry x="235" y="221" width="692" height="648" as="geometry" />
        </mxCell>
        <mxCell id="B_Na2INnCVECL0KGW9Hh-82" value="" style="rounded=1;whiteSpace=wrap;html=1;strokeWidth=1;fontFamily=Helvetica;fontSize=12;fontColor=default;fillColor=none;gradientColor=none;strokeColor=#0D9EFF;" vertex="1" parent="1">
          <mxGeometry x="262" y="248.5" width="381" height="326.5" as="geometry" />
        </mxCell>
        <mxCell id="B_Na2INnCVECL0KGW9Hh-83" value="" style="rounded=1;whiteSpace=wrap;html=1;strokeWidth=1;fontFamily=Helvetica;fontSize=12;fontColor=default;fillColor=none;gradientColor=none;strokeColor=#0D9EFF;" vertex="1" parent="1">
          <mxGeometry x="264" y="589" width="532" height="262" as="geometry" />
        </mxCell>
        <mxCell id="B_Na2INnCVECL0KGW9Hh-84" value="&lt;font face=&quot;Times New Roman&quot;&gt;&lt;b&gt;Actor Network&lt;/b&gt;&lt;/font&gt;" style="text;strokeColor=none;align=center;fillColor=none;html=1;verticalAlign=middle;whiteSpace=wrap;rounded=0;fontSize=12;fontFamily=Helvetica;fontColor=default;" vertex="1" parent="1">
          <mxGeometry x="284" y="253" width="82" height="30" as="geometry" />
        </mxCell>
        <mxCell id="B_Na2INnCVECL0KGW9Hh-85" value="&lt;font face=&quot;Times New Roman&quot;&gt;&lt;b&gt;Critic Network&lt;/b&gt;&lt;/font&gt;" style="text;strokeColor=none;align=center;fillColor=none;html=1;verticalAlign=middle;whiteSpace=wrap;rounded=0;fontSize=12;fontFamily=Helvetica;fontColor=default;" vertex="1" parent="1">
          <mxGeometry x="283" y="593" width="82" height="30" as="geometry" />
        </mxCell>
        <mxCell id="B_Na2INnCVECL0KGW9Hh-86" value="" style="rounded=1;whiteSpace=wrap;html=1;strokeWidth=1;fontFamily=Helvetica;fontSize=12;fontColor=default;fillColor=none;gradientColor=none;strokeColor=#0D9EFF;dashed=1;dashPattern=8 8;" vertex="1" parent="1">
          <mxGeometry x="284" y="280" width="321" height="167" as="geometry" />
        </mxCell>
        <mxCell id="B_Na2INnCVECL0KGW9Hh-87" value="" style="rounded=1;whiteSpace=wrap;html=1;strokeWidth=1;fontFamily=Helvetica;fontSize=12;fontColor=default;fillColor=none;gradientColor=none;strokeColor=#0D9EFF;dashed=1;" vertex="1" parent="1">
          <mxGeometry x="283" y="462.94" width="322" height="102" as="geometry" />
        </mxCell>
        <mxCell id="B_Na2INnCVECL0KGW9Hh-88" style="edgeStyle=orthogonalEdgeStyle;rounded=0;orthogonalLoop=1;jettySize=auto;html=1;exitX=1;exitY=0.5;exitDx=0;exitDy=0;fontFamily=Helvetica;fontSize=12;fontColor=default;entryX=0;entryY=0.5;entryDx=0;entryDy=0;strokeColor=#0D9EFF;strokeWidth=2;" edge="1" parent="1" source="B_Na2INnCVECL0KGW9Hh-73" target="B_Na2INnCVECL0KGW9Hh-89">
          <mxGeometry relative="1" as="geometry">
            <mxPoint x="240.28571428571422" y="324.42857142857144" as="targetPoint" />
            <Array as="points">
              <mxPoint x="218" y="390" />
              <mxPoint x="218" y="308" />
            </Array>
          </mxGeometry>
        </mxCell>
        <mxCell id="B_Na2INnCVECL0KGW9Hh-89" value="&lt;font style=&quot;font-size: 10px;&quot; face=&quot;Times New Roman&quot;&gt;&lt;span style=&quot;font-size: 10px;&quot;&gt;p&lt;/span&gt;&lt;sub style=&quot;font-size: 10px;&quot;&gt;1&lt;/sub&gt;&lt;/font&gt;" style="whiteSpace=wrap;html=1;aspect=fixed;rounded=1;strokeColor=#A2F1EC;fillColor=#A2F1EC;" vertex="1" parent="1">
          <mxGeometry x="304" y="300" width="16.877028489001084" height="16.877028489001084" as="geometry" />
        </mxCell>
        <mxCell id="B_Na2INnCVECL0KGW9Hh-90" value="" style="rounded=0;whiteSpace=wrap;html=1;strokeWidth=0;fontFamily=Helvetica;fontSize=12;fillColor=#dae8fc;strokeColor=#6c8ebf;" vertex="1" parent="1">
          <mxGeometry x="331" y="285" width="83" height="38.94" as="geometry" />
        </mxCell>
        <mxCell id="B_Na2INnCVECL0KGW9Hh-91" value="&lt;font face=&quot;Times New Roman&quot; style=&quot;font-size: 6px;&quot;&gt;Embedding&lt;/font&gt;" style="text;strokeColor=none;align=center;fillColor=none;html=1;verticalAlign=middle;whiteSpace=wrap;rounded=0;fontSize=12;fontFamily=Helvetica;fontColor=default;" vertex="1" parent="1">
          <mxGeometry x="361.25" y="290" width="22.5" height="10" as="geometry" />
        </mxCell>
        <mxCell id="B_Na2INnCVECL0KGW9Hh-92" value="&lt;font style=&quot;font-size: 10px;&quot; face=&quot;Times New Roman&quot;&gt;&lt;span style=&quot;font-size: 10px;&quot;&gt;e&lt;/span&gt;&lt;sub style=&quot;font-size: 10px;&quot;&gt;1&lt;/sub&gt;&lt;/font&gt;" style="whiteSpace=wrap;html=1;aspect=fixed;rounded=1;strokeColor=#A2F1EC;fillColor=#A2F1EC;" vertex="1" parent="1">
          <mxGeometry x="424" y="300" width="16.877028489001084" height="16.877028489001084" as="geometry" />
        </mxCell>
        <mxCell id="B_Na2INnCVECL0KGW9Hh-93" style="edgeStyle=none;rounded=0;orthogonalLoop=1;jettySize=auto;html=1;exitX=1;exitY=0.5;exitDx=0;exitDy=0;fontFamily=Helvetica;fontSize=12;fontColor=default;fillColor=#d5e8d4;strokeColor=#82b366;" edge="1" parent="1" source="B_Na2INnCVECL0KGW9Hh-89" target="B_Na2INnCVECL0KGW9Hh-92">
          <mxGeometry relative="1" as="geometry" />
        </mxCell>
        <mxCell id="B_Na2INnCVECL0KGW9Hh-96" style="edgeStyle=orthogonalEdgeStyle;rounded=0;orthogonalLoop=1;jettySize=auto;html=1;exitX=1;exitY=0.5;exitDx=0;exitDy=0;entryX=0;entryY=0.5;entryDx=0;entryDy=0;fontFamily=Helvetica;fontSize=12;fontColor=default;strokeColor=#0D9EFF;strokeWidth=2;" edge="1" parent="1" source="B_Na2INnCVECL0KGW9Hh-39" target="B_Na2INnCVECL0KGW9Hh-160">
          <mxGeometry relative="1" as="geometry">
            <Array as="points">
              <mxPoint x="218" y="723" />
              <mxPoint x="218" y="359" />
            </Array>
          </mxGeometry>
        </mxCell>
        <mxCell id="B_Na2INnCVECL0KGW9Hh-173" value="" style="edgeStyle=orthogonalEdgeStyle;rounded=0;orthogonalLoop=1;jettySize=auto;html=1;fontFamily=Helvetica;fontSize=12;fontColor=default;" edge="1" parent="1" source="B_Na2INnCVECL0KGW9Hh-160" target="B_Na2INnCVECL0KGW9Hh-162">
          <mxGeometry relative="1" as="geometry" />
        </mxCell>
        <mxCell id="B_Na2INnCVECL0KGW9Hh-160" value="&lt;font style=&quot;font-size: 10px;&quot; face=&quot;Times New Roman&quot;&gt;q&lt;sub style=&quot;font-size: 10px;&quot;&gt;1&lt;/sub&gt;&lt;/font&gt;" style="whiteSpace=wrap;html=1;aspect=fixed;rounded=1;strokeColor=#A9E889;fillColor=#A9E889;" vertex="1" parent="1">
          <mxGeometry x="304" y="351" width="16.877028489001084" height="16.877028489001084" as="geometry" />
        </mxCell>
        <mxCell id="B_Na2INnCVECL0KGW9Hh-172" style="edgeStyle=orthogonalEdgeStyle;rounded=0;orthogonalLoop=1;jettySize=auto;html=1;exitX=1;exitY=0.5;exitDx=0;exitDy=0;entryX=0.72;entryY=0.123;entryDx=0;entryDy=0;fontFamily=Helvetica;fontSize=12;fontColor=default;strokeWidth=2;fillColor=#d0cee2;strokeColor=#56517e;entryPerimeter=0;" edge="1" parent="1" source="B_Na2INnCVECL0KGW9Hh-163" target="B_Na2INnCVECL0KGW9Hh-175">
          <mxGeometry relative="1" as="geometry">
            <mxPoint x="496.4985142445005" y="389" as="targetPoint" />
          </mxGeometry>
        </mxCell>
        <mxCell id="B_Na2INnCVECL0KGW9Hh-163" value="&lt;font style=&quot;font-size: 10px;&quot; face=&quot;Times New Roman&quot;&gt;&lt;span style=&quot;font-size: 10px;&quot;&gt;e&#39;&lt;/span&gt;&lt;sub style=&quot;font-size: 10px;&quot;&gt;1&lt;/sub&gt;&lt;/font&gt;" style="whiteSpace=wrap;html=1;aspect=fixed;rounded=1;strokeColor=#A9E889;fillColor=#A9E889;" vertex="1" parent="1">
          <mxGeometry x="424" y="351" width="16.877028489001084" height="16.877028489001084" as="geometry" />
        </mxCell>
        <mxCell id="B_Na2INnCVECL0KGW9Hh-167" value="" style="group" vertex="1" connectable="0" parent="1">
          <mxGeometry x="331" y="336" width="83" height="38.94" as="geometry" />
        </mxCell>
        <mxCell id="B_Na2INnCVECL0KGW9Hh-161" value="" style="rounded=0;whiteSpace=wrap;html=1;strokeWidth=0;fontFamily=Helvetica;fontSize=12;fillColor=#fff2cc;strokeColor=#d6b656;" vertex="1" parent="B_Na2INnCVECL0KGW9Hh-167">
          <mxGeometry width="83" height="38.94" as="geometry" />
        </mxCell>
        <mxCell id="B_Na2INnCVECL0KGW9Hh-162" value="&lt;font face=&quot;Times New Roman&quot; style=&quot;font-size: 6px;&quot;&gt;Embedding&lt;/font&gt;" style="text;strokeColor=none;align=center;fillColor=none;html=1;verticalAlign=middle;whiteSpace=wrap;rounded=0;fontSize=12;fontFamily=Helvetica;fontColor=default;" vertex="1" parent="B_Na2INnCVECL0KGW9Hh-167">
          <mxGeometry x="30.25" y="5" width="22.5" height="10" as="geometry" />
        </mxCell>
        <mxCell id="B_Na2INnCVECL0KGW9Hh-168" value="" style="group;fillColor=none;" vertex="1" connectable="0" parent="1">
          <mxGeometry x="454.17" y="285" width="83" height="41" as="geometry" />
        </mxCell>
        <mxCell id="B_Na2INnCVECL0KGW9Hh-169" value="" style="rounded=0;whiteSpace=wrap;html=1;strokeWidth=0;fontFamily=Helvetica;fontSize=12;fillColor=#b1ddf0;strokeColor=#10739e;" vertex="1" parent="B_Na2INnCVECL0KGW9Hh-168">
          <mxGeometry width="83" height="41" as="geometry" />
        </mxCell>
        <mxCell id="B_Na2INnCVECL0KGW9Hh-170" value="&lt;font face=&quot;Times New Roman&quot; style=&quot;font-size: 6px;&quot;&gt;LSTM&lt;/font&gt;" style="text;strokeColor=none;align=center;fillColor=none;html=1;verticalAlign=middle;whiteSpace=wrap;rounded=0;fontSize=12;fontFamily=Helvetica;fontColor=default;" vertex="1" parent="B_Na2INnCVECL0KGW9Hh-168">
          <mxGeometry x="30.25" y="4.995490498202363" width="22.5" height="10.529019003595275" as="geometry" />
        </mxCell>
        <mxCell id="B_Na2INnCVECL0KGW9Hh-164" style="edgeStyle=none;rounded=0;orthogonalLoop=1;jettySize=auto;html=1;exitX=1;exitY=0.5;exitDx=0;exitDy=0;fontFamily=Helvetica;fontSize=12;fontColor=default;fillColor=#e1d5e7;strokeColor=#9673a6;" edge="1" parent="1">
          <mxGeometry relative="1" as="geometry">
            <mxPoint x="320.88" y="359.2" as="sourcePoint" />
            <mxPoint x="423.88" y="359.2" as="targetPoint" />
          </mxGeometry>
        </mxCell>
        <mxCell id="B_Na2INnCVECL0KGW9Hh-174" value="" style="group" vertex="1" connectable="0" parent="1">
          <mxGeometry x="399" y="424" width="164" height="47" as="geometry" />
        </mxCell>
        <mxCell id="B_Na2INnCVECL0KGW9Hh-175" value="" style="rounded=0;whiteSpace=wrap;html=1;strokeWidth=0;fontFamily=Helvetica;fontSize=12;fillColor=#ffcccc;strokeColor=#36393d;" vertex="1" parent="B_Na2INnCVECL0KGW9Hh-174">
          <mxGeometry x="-80" width="244" height="22" as="geometry" />
        </mxCell>
        <mxCell id="B_Na2INnCVECL0KGW9Hh-176" value="&lt;font face=&quot;Times New Roman&quot;&gt;Concatenate&lt;/font&gt;" style="text;strokeColor=none;align=center;fillColor=none;html=1;verticalAlign=middle;whiteSpace=wrap;rounded=0;fontSize=12;fontFamily=Helvetica;fontColor=default;" vertex="1" parent="B_Na2INnCVECL0KGW9Hh-174">
          <mxGeometry x="30.25" y="5" width="22.5" height="10" as="geometry" />
        </mxCell>
        <mxCell id="B_Na2INnCVECL0KGW9Hh-189" value="C&lt;sub&gt;1&lt;/sub&gt;" style="rounded=1;whiteSpace=wrap;html=1;strokeWidth=1;fontFamily=Helvetica;fontSize=12;fillColor=#ffcc99;strokeColor=#FFCC99;" vertex="1" parent="B_Na2INnCVECL0KGW9Hh-174">
          <mxGeometry x="23" y="26" width="35.5" height="17" as="geometry" />
        </mxCell>
        <mxCell id="B_Na2INnCVECL0KGW9Hh-190" style="edgeStyle=none;rounded=0;orthogonalLoop=1;jettySize=auto;html=1;exitX=0;exitY=0;exitDx=0;exitDy=0;fontFamily=Helvetica;fontSize=12;fontColor=default;" edge="1" parent="B_Na2INnCVECL0KGW9Hh-174" source="B_Na2INnCVECL0KGW9Hh-189" target="B_Na2INnCVECL0KGW9Hh-189">
          <mxGeometry relative="1" as="geometry" />
        </mxCell>
        <mxCell id="B_Na2INnCVECL0KGW9Hh-180" value="Attention" style="rounded=0;whiteSpace=wrap;html=1;strokeWidth=0;fontFamily=Helvetica;fontSize=12;fillColor=#e1d5e7;strokeColor=#9673a6;" vertex="1" parent="1">
          <mxGeometry x="319" y="481" width="244" height="22" as="geometry" />
        </mxCell>
        <mxCell id="B_Na2INnCVECL0KGW9Hh-193" value="a&lt;sub&gt;1&lt;/sub&gt;" style="rounded=1;whiteSpace=wrap;html=1;strokeWidth=1;fontFamily=Helvetica;fontSize=12;fillColor=#d5e8d4;strokeColor=#82b366;" vertex="1" parent="1">
          <mxGeometry x="320.88" y="519" width="35.5" height="17" as="geometry" />
        </mxCell>
        <mxCell id="B_Na2INnCVECL0KGW9Hh-198" value="a&lt;sub&gt;3&lt;/sub&gt;" style="rounded=1;whiteSpace=wrap;html=1;strokeWidth=1;fontFamily=Helvetica;fontSize=12;fillColor=#b1ddf0;strokeColor=#10739e;" vertex="1" parent="1">
          <mxGeometry x="426.25" y="519" width="35.5" height="17" as="geometry" />
        </mxCell>
        <mxCell id="B_Na2INnCVECL0KGW9Hh-199" value="a&lt;sub&gt;2&lt;/sub&gt;" style="rounded=1;whiteSpace=wrap;html=1;strokeWidth=1;fontFamily=Helvetica;fontSize=12;fillColor=#fad9d5;strokeColor=#ae4132;" vertex="1" parent="1">
          <mxGeometry x="372" y="519" width="35.5" height="17" as="geometry" />
        </mxCell>
        <mxCell id="B_Na2INnCVECL0KGW9Hh-200" value="a&lt;sub&gt;5&lt;/sub&gt;" style="rounded=1;whiteSpace=wrap;html=1;strokeWidth=1;fontFamily=Helvetica;fontSize=12;fillColor=#ffff88;strokeColor=#36393d;" vertex="1" parent="1">
          <mxGeometry x="527.5" y="519" width="35.5" height="17" as="geometry" />
        </mxCell>
        <mxCell id="B_Na2INnCVECL0KGW9Hh-201" value="a&lt;sub&gt;4&lt;/sub&gt;" style="rounded=1;whiteSpace=wrap;html=1;strokeWidth=1;fontFamily=Helvetica;fontSize=12;fillColor=#b0e3e6;strokeColor=#0e8088;" vertex="1" parent="1">
          <mxGeometry x="478.75" y="519" width="35.5" height="17" as="geometry" />
        </mxCell>
        <mxCell id="B_Na2INnCVECL0KGW9Hh-205" value="" style="endArrow=none;html=1;rounded=0;fontFamily=Helvetica;fontSize=12;fontColor=default;entryX=0.87;entryY=0.961;entryDx=0;entryDy=0;entryPerimeter=0;" edge="1" parent="1" target="B_Na2INnCVECL0KGW9Hh-87">
          <mxGeometry width="50" height="50" relative="1" as="geometry">
            <mxPoint x="320.88" y="560" as="sourcePoint" />
            <mxPoint x="490" y="558" as="targetPoint" />
          </mxGeometry>
        </mxCell>
        <mxCell id="B_Na2INnCVECL0KGW9Hh-208" value="" style="rounded=0;whiteSpace=wrap;html=1;strokeWidth=1;fontFamily=Helvetica;fontSize=12;fontColor=#ffffff;fillColor=#a20025;rotation=-90;strokeColor=#6F0000;" vertex="1" parent="1">
          <mxGeometry x="332.32" y="546.94" width="12.62" height="12" as="geometry" />
        </mxCell>
        <mxCell id="B_Na2INnCVECL0KGW9Hh-209" value="" style="rounded=0;whiteSpace=wrap;html=1;strokeWidth=1;fontFamily=Helvetica;fontSize=12;fontColor=#ffffff;fillColor=#a20025;rotation=-90;strokeColor=#6F0000;" vertex="1" parent="1">
          <mxGeometry x="390.38" y="550.94" width="4.62" height="12" as="geometry" />
        </mxCell>
        <mxCell id="B_Na2INnCVECL0KGW9Hh-210" value="" style="rounded=0;whiteSpace=wrap;html=1;strokeWidth=1;fontFamily=Helvetica;fontSize=12;fontColor=#ffffff;fillColor=#a20025;rotation=-90;strokeColor=#6F0000;" vertex="1" parent="1">
          <mxGeometry x="434.83" y="544.17" width="19.34" height="12" as="geometry" />
        </mxCell>
        <mxCell id="B_Na2INnCVECL0KGW9Hh-211" value="" style="rounded=0;whiteSpace=wrap;html=1;strokeWidth=1;fontFamily=Helvetica;fontSize=12;fontColor=#ffffff;fillColor=#a20025;rotation=-90;strokeColor=#6F0000;" vertex="1" parent="1">
          <mxGeometry x="488" y="545" width="17.68" height="12" as="geometry" />
        </mxCell>
        <mxCell id="B_Na2INnCVECL0KGW9Hh-212" value="" style="rounded=0;whiteSpace=wrap;html=1;strokeWidth=1;fontFamily=Helvetica;fontSize=12;fontColor=#ffffff;fillColor=#a20025;rotation=-90;strokeColor=#6F0000;" vertex="1" parent="1">
          <mxGeometry x="541.9100000000001" y="550.9399999999999" width="6.68" height="12" as="geometry" />
        </mxCell>
        <mxCell id="B_Na2INnCVECL0KGW9Hh-253" value="" style="group" vertex="1" connectable="0" parent="1">
          <mxGeometry x="271.26" y="649" width="174.74" height="17" as="geometry" />
        </mxCell>
        <mxCell id="B_Na2INnCVECL0KGW9Hh-250" value="" style="rounded=0;whiteSpace=wrap;html=1;strokeWidth=0;fontFamily=Helvetica;fontSize=12;fillColor=#dae8fc;strokeColor=#6c8ebf;" vertex="1" parent="B_Na2INnCVECL0KGW9Hh-253">
          <mxGeometry width="174.74" height="17" as="geometry" />
        </mxCell>
        <mxCell id="B_Na2INnCVECL0KGW9Hh-251" value="&lt;font face=&quot;Times New Roman&quot; style=&quot;font-size: 6px;&quot;&gt;Embedding&lt;/font&gt;" style="text;strokeColor=none;align=center;fillColor=none;html=1;verticalAlign=middle;whiteSpace=wrap;rounded=0;fontSize=12;fontFamily=Helvetica;fontColor=default;" vertex="1" parent="B_Na2INnCVECL0KGW9Hh-253">
          <mxGeometry x="20.60370239358566" y="3" width="23.17916519278387" height="10" as="geometry" />
        </mxCell>
        <mxCell id="B_Na2INnCVECL0KGW9Hh-284" style="edgeStyle=none;rounded=0;orthogonalLoop=1;jettySize=auto;html=1;exitX=1;exitY=0.5;exitDx=0;exitDy=0;fontFamily=Helvetica;fontSize=12;fontColor=default;fillColor=#d5e8d4;strokeColor=#82b366;entryX=0.5;entryY=0;entryDx=0;entryDy=0;" edge="1" parent="B_Na2INnCVECL0KGW9Hh-253" target="B_Na2INnCVECL0KGW9Hh-274">
          <mxGeometry relative="1" as="geometry">
            <mxPoint x="68.74000000000001" y="-7" as="sourcePoint" />
            <mxPoint x="69.74000000000001" y="23" as="targetPoint" />
          </mxGeometry>
        </mxCell>
        <mxCell id="B_Na2INnCVECL0KGW9Hh-285" style="edgeStyle=none;rounded=0;orthogonalLoop=1;jettySize=auto;html=1;exitX=1;exitY=0.5;exitDx=0;exitDy=0;fontFamily=Helvetica;fontSize=12;fontColor=default;fillColor=#d5e8d4;strokeColor=#82b366;entryX=0.5;entryY=0;entryDx=0;entryDy=0;" edge="1" parent="B_Na2INnCVECL0KGW9Hh-253">
          <mxGeometry relative="1" as="geometry">
            <mxPoint x="96.48000000000002" y="-7" as="sourcePoint" />
            <mxPoint x="95.74000000000001" y="35" as="targetPoint" />
          </mxGeometry>
        </mxCell>
        <mxCell id="B_Na2INnCVECL0KGW9Hh-254" value="" style="group" vertex="1" connectable="0" parent="1">
          <mxGeometry x="459" y="648" width="177" height="18" as="geometry" />
        </mxCell>
        <mxCell id="B_Na2INnCVECL0KGW9Hh-255" value="" style="rounded=0;whiteSpace=wrap;html=1;strokeWidth=0;fontFamily=Helvetica;fontSize=12;fillColor=#fff2cc;strokeColor=#d6b656;" vertex="1" parent="B_Na2INnCVECL0KGW9Hh-254">
          <mxGeometry width="177" height="18" as="geometry" />
        </mxCell>
        <mxCell id="B_Na2INnCVECL0KGW9Hh-256" value="&lt;font face=&quot;Times New Roman&quot; style=&quot;font-size: 6px;&quot;&gt;Embedding&lt;/font&gt;" style="text;strokeColor=none;align=center;fillColor=none;html=1;verticalAlign=middle;whiteSpace=wrap;rounded=0;fontSize=12;fontFamily=Helvetica;fontColor=default;" vertex="1" parent="B_Na2INnCVECL0KGW9Hh-254">
          <mxGeometry x="4.865941514426" y="6.821645971177377" width="47.98192771084338" height="4.350584609806943" as="geometry" />
        </mxCell>
        <mxCell id="B_Na2INnCVECL0KGW9Hh-289" style="edgeStyle=none;rounded=0;orthogonalLoop=1;jettySize=auto;html=1;exitX=1;exitY=0.5;exitDx=0;exitDy=0;fontFamily=Helvetica;fontSize=12;fontColor=default;fillColor=#d5e8d4;strokeColor=#9673A6;entryX=0.5;entryY=0;entryDx=0;entryDy=0;" edge="1" parent="B_Na2INnCVECL0KGW9Hh-254">
          <mxGeometry relative="1" as="geometry">
            <mxPoint x="76.74000000000001" y="-6" as="sourcePoint" />
            <mxPoint x="76" y="36" as="targetPoint" />
          </mxGeometry>
        </mxCell>
        <mxCell id="B_Na2INnCVECL0KGW9Hh-270" value="" style="group" vertex="1" connectable="0" parent="1">
          <mxGeometry x="527.5" y="625" width="95.32702848900107" height="16.877028489001077" as="geometry" />
        </mxCell>
        <mxCell id="B_Na2INnCVECL0KGW9Hh-219" value="&lt;font style=&quot;font-size: 10px;&quot; face=&quot;Times New Roman&quot;&gt;q&lt;sub style=&quot;font-size: 10px;&quot;&gt;1&lt;/sub&gt;&lt;/font&gt;" style="whiteSpace=wrap;html=1;aspect=fixed;rounded=1;strokeColor=#A9E889;fillColor=#A9E889;" vertex="1" parent="B_Na2INnCVECL0KGW9Hh-270">
          <mxGeometry width="16.877028489001084" height="16.877028489001084" as="geometry" />
        </mxCell>
        <mxCell id="B_Na2INnCVECL0KGW9Hh-263" value="&lt;font style=&quot;font-size: 10px;&quot; face=&quot;Times New Roman&quot;&gt;q&lt;sub style=&quot;font-size: 10px;&quot;&gt;2&lt;/sub&gt;&lt;/font&gt;" style="whiteSpace=wrap;html=1;aspect=fixed;rounded=1;strokeColor=#A9E889;fillColor=#A9E889;" vertex="1" parent="B_Na2INnCVECL0KGW9Hh-270">
          <mxGeometry x="26.5" width="16.877028489001084" height="16.877028489001084" as="geometry" />
        </mxCell>
        <mxCell id="B_Na2INnCVECL0KGW9Hh-264" value="&lt;font style=&quot;font-size: 10px;&quot; face=&quot;Times New Roman&quot;&gt;q&lt;sub style=&quot;font-size: 10px;&quot;&gt;n&lt;/sub&gt;&lt;/font&gt;" style="whiteSpace=wrap;html=1;aspect=fixed;rounded=1;strokeColor=#A9E889;fillColor=#A9E889;" vertex="1" parent="B_Na2INnCVECL0KGW9Hh-270">
          <mxGeometry x="78.44999999999999" width="16.877028489001084" height="16.877028489001084" as="geometry" />
        </mxCell>
        <mxCell id="B_Na2INnCVECL0KGW9Hh-267" value="..." style="text;strokeColor=none;align=center;fillColor=none;html=1;verticalAlign=middle;whiteSpace=wrap;rounded=0;fontSize=12;fontFamily=Helvetica;fontColor=default;" vertex="1" parent="B_Na2INnCVECL0KGW9Hh-270">
          <mxGeometry x="43.379999999999995" y="2.9400000000000546" width="34" height="11" as="geometry" />
        </mxCell>
        <mxCell id="B_Na2INnCVECL0KGW9Hh-272" value="" style="group" vertex="1" connectable="0" parent="1">
          <mxGeometry x="332" y="625" width="108.75702848900107" height="16.877028489001077" as="geometry" />
        </mxCell>
        <mxCell id="B_Na2INnCVECL0KGW9Hh-249" value="&lt;font style=&quot;font-size: 10px;&quot; face=&quot;Times New Roman&quot;&gt;&lt;span style=&quot;font-size: 10px;&quot;&gt;p&lt;/span&gt;&lt;sub style=&quot;font-size: 10px;&quot;&gt;1&lt;/sub&gt;&lt;/font&gt;" style="whiteSpace=wrap;html=1;aspect=fixed;rounded=1;strokeColor=#A2F1EC;fillColor=#A2F1EC;" vertex="1" parent="B_Na2INnCVECL0KGW9Hh-272">
          <mxGeometry width="16.877028489001084" height="16.877028489001084" as="geometry" />
        </mxCell>
        <mxCell id="B_Na2INnCVECL0KGW9Hh-265" value="&lt;font style=&quot;font-size: 10px;&quot; face=&quot;Times New Roman&quot;&gt;&lt;span style=&quot;font-size: 10px;&quot;&gt;p&lt;/span&gt;&lt;sub style=&quot;font-size: 10px;&quot;&gt;2&lt;/sub&gt;&lt;/font&gt;" style="whiteSpace=wrap;html=1;aspect=fixed;rounded=1;strokeColor=#A2F1EC;fillColor=#A2F1EC;" vertex="1" parent="B_Na2INnCVECL0KGW9Hh-272">
          <mxGeometry x="27.470000000000027" width="16.877028489001084" height="16.877028489001084" as="geometry" />
        </mxCell>
        <mxCell id="B_Na2INnCVECL0KGW9Hh-266" value="&lt;font style=&quot;font-size: 10px;&quot; face=&quot;Times New Roman&quot;&gt;&lt;span style=&quot;font-size: 10px;&quot;&gt;p&lt;/span&gt;&lt;sub style=&quot;font-size: 10px;&quot;&gt;n&lt;/sub&gt;&lt;/font&gt;" style="whiteSpace=wrap;html=1;aspect=fixed;rounded=1;strokeColor=#A2F1EC;fillColor=#A2F1EC;" vertex="1" parent="B_Na2INnCVECL0KGW9Hh-272">
          <mxGeometry x="91.88" width="16.877028489001084" height="16.877028489001084" as="geometry" />
        </mxCell>
        <mxCell id="B_Na2INnCVECL0KGW9Hh-268" value="..." style="text;strokeColor=none;align=center;fillColor=none;html=1;verticalAlign=middle;whiteSpace=wrap;rounded=0;fontSize=12;fontFamily=Helvetica;fontColor=default;" vertex="1" parent="B_Na2INnCVECL0KGW9Hh-272">
          <mxGeometry x="49.879999999999995" y="2.9400000000000546" width="34" height="11" as="geometry" />
        </mxCell>
        <mxCell id="B_Na2INnCVECL0KGW9Hh-273" value="" style="group" vertex="1" connectable="0" parent="1">
          <mxGeometry x="331" y="684" width="108.75702848900107" height="16.877028489001077" as="geometry" />
        </mxCell>
        <mxCell id="B_Na2INnCVECL0KGW9Hh-274" value="&lt;font style=&quot;font-size: 10px;&quot; face=&quot;Times New Roman&quot;&gt;&lt;span style=&quot;font-size: 10px;&quot;&gt;e&lt;/span&gt;&lt;sub style=&quot;font-size: 10px;&quot;&gt;1&lt;/sub&gt;&lt;/font&gt;" style="whiteSpace=wrap;html=1;aspect=fixed;rounded=1;strokeColor=#A2F1EC;fillColor=#A2F1EC;" vertex="1" parent="B_Na2INnCVECL0KGW9Hh-273">
          <mxGeometry width="16.877028489001084" height="16.877028489001084" as="geometry" />
        </mxCell>
        <mxCell id="B_Na2INnCVECL0KGW9Hh-275" value="&lt;font style=&quot;font-size: 10px;&quot; face=&quot;Times New Roman&quot;&gt;&lt;span style=&quot;font-size: 10px;&quot;&gt;e&lt;/span&gt;&lt;sub style=&quot;font-size: 10px;&quot;&gt;2&lt;/sub&gt;&lt;/font&gt;" style="whiteSpace=wrap;html=1;aspect=fixed;rounded=1;strokeColor=#A2F1EC;fillColor=#A2F1EC;" vertex="1" parent="B_Na2INnCVECL0KGW9Hh-273">
          <mxGeometry x="27.470000000000027" width="16.877028489001084" height="16.877028489001084" as="geometry" />
        </mxCell>
        <mxCell id="B_Na2INnCVECL0KGW9Hh-276" value="&lt;font style=&quot;font-size: 10px;&quot; face=&quot;Times New Roman&quot;&gt;&lt;span style=&quot;font-size: 10px;&quot;&gt;e&lt;/span&gt;&lt;sub style=&quot;font-size: 10px;&quot;&gt;n&lt;/sub&gt;&lt;/font&gt;" style="whiteSpace=wrap;html=1;aspect=fixed;rounded=1;strokeColor=#A2F1EC;fillColor=#A2F1EC;" vertex="1" parent="B_Na2INnCVECL0KGW9Hh-273">
          <mxGeometry x="91.88" width="16.877028489001084" height="16.877028489001084" as="geometry" />
        </mxCell>
        <mxCell id="B_Na2INnCVECL0KGW9Hh-277" value="..." style="text;strokeColor=none;align=center;fillColor=none;html=1;verticalAlign=middle;whiteSpace=wrap;rounded=0;fontSize=12;fontFamily=Helvetica;fontColor=default;" vertex="1" parent="B_Na2INnCVECL0KGW9Hh-273">
          <mxGeometry x="49.879999999999995" y="2.9400000000000546" width="34" height="11" as="geometry" />
        </mxCell>
        <mxCell id="B_Na2INnCVECL0KGW9Hh-279" value="" style="group" vertex="1" connectable="0" parent="1">
          <mxGeometry x="527.5" y="684" width="95.32702848900107" height="16.877028489001077" as="geometry" />
        </mxCell>
        <mxCell id="B_Na2INnCVECL0KGW9Hh-280" value="&lt;font style=&quot;font-size: 10px;&quot; face=&quot;Times New Roman&quot;&gt;q&lt;sub style=&quot;font-size: 10px;&quot;&gt;1&lt;/sub&gt;&lt;/font&gt;" style="whiteSpace=wrap;html=1;aspect=fixed;rounded=1;strokeColor=#A9E889;fillColor=#A9E889;" vertex="1" parent="B_Na2INnCVECL0KGW9Hh-279">
          <mxGeometry width="16.877028489001084" height="16.877028489001084" as="geometry" />
        </mxCell>
        <mxCell id="B_Na2INnCVECL0KGW9Hh-281" value="&lt;font style=&quot;font-size: 10px;&quot; face=&quot;Times New Roman&quot;&gt;q&lt;sub style=&quot;font-size: 10px;&quot;&gt;2&lt;/sub&gt;&lt;/font&gt;" style="whiteSpace=wrap;html=1;aspect=fixed;rounded=1;strokeColor=#A9E889;fillColor=#A9E889;" vertex="1" parent="B_Na2INnCVECL0KGW9Hh-279">
          <mxGeometry x="26.5" width="16.877028489001084" height="16.877028489001084" as="geometry" />
        </mxCell>
        <mxCell id="B_Na2INnCVECL0KGW9Hh-282" value="&lt;font style=&quot;font-size: 10px;&quot; face=&quot;Times New Roman&quot;&gt;q&lt;sub style=&quot;font-size: 10px;&quot;&gt;n&lt;/sub&gt;&lt;/font&gt;" style="whiteSpace=wrap;html=1;aspect=fixed;rounded=1;strokeColor=#A9E889;fillColor=#A9E889;" vertex="1" parent="B_Na2INnCVECL0KGW9Hh-279">
          <mxGeometry x="78.44999999999999" width="16.877028489001084" height="16.877028489001084" as="geometry" />
        </mxCell>
        <mxCell id="B_Na2INnCVECL0KGW9Hh-283" value="..." style="text;strokeColor=none;align=center;fillColor=none;html=1;verticalAlign=middle;whiteSpace=wrap;rounded=0;fontSize=12;fontFamily=Helvetica;fontColor=default;" vertex="1" parent="B_Na2INnCVECL0KGW9Hh-279">
          <mxGeometry x="43.379999999999995" y="2.9400000000000546" width="34" height="11" as="geometry" />
        </mxCell>
        <mxCell id="B_Na2INnCVECL0KGW9Hh-286" style="edgeStyle=none;rounded=0;orthogonalLoop=1;jettySize=auto;html=1;exitX=1;exitY=0.5;exitDx=0;exitDy=0;fontFamily=Helvetica;fontSize=12;fontColor=default;fillColor=#d5e8d4;strokeColor=#82b366;" edge="1" parent="1">
          <mxGeometry relative="1" as="geometry">
            <mxPoint x="432.81" y="642" as="sourcePoint" />
            <mxPoint x="432.07" y="684" as="targetPoint" />
          </mxGeometry>
        </mxCell>
        <mxCell id="B_Na2INnCVECL0KGW9Hh-288" style="edgeStyle=none;rounded=0;orthogonalLoop=1;jettySize=auto;html=1;exitX=1;exitY=0.5;exitDx=0;exitDy=0;fontFamily=Helvetica;fontSize=12;fontColor=default;fillColor=#d5e8d4;strokeColor=#9673A6;entryX=0.5;entryY=0;entryDx=0;entryDy=0;" edge="1" parent="1">
          <mxGeometry relative="1" as="geometry">
            <mxPoint x="563" y="642" as="sourcePoint" />
            <mxPoint x="562.26" y="684" as="targetPoint" />
          </mxGeometry>
        </mxCell>
        <mxCell id="B_Na2INnCVECL0KGW9Hh-290" style="edgeStyle=none;rounded=0;orthogonalLoop=1;jettySize=auto;html=1;exitX=1;exitY=0.5;exitDx=0;exitDy=0;fontFamily=Helvetica;fontSize=12;fontColor=default;fillColor=#d5e8d4;strokeColor=#9673A6;entryX=0.5;entryY=0;entryDx=0;entryDy=0;" edge="1" parent="1">
          <mxGeometry relative="1" as="geometry">
            <mxPoint x="615.74" y="642" as="sourcePoint" />
            <mxPoint x="615" y="684" as="targetPoint" />
          </mxGeometry>
        </mxCell>
        <mxCell id="B_Na2INnCVECL0KGW9Hh-291" value="" style="group;fillColor=none;" vertex="1" connectable="0" parent="1">
          <mxGeometry x="270" y="712" width="176" height="55.43857142857132" as="geometry" />
        </mxCell>
        <mxCell id="B_Na2INnCVECL0KGW9Hh-292" value="" style="rounded=0;whiteSpace=wrap;html=1;strokeWidth=0;fontFamily=Helvetica;fontSize=12;fillColor=#b1ddf0;strokeColor=#10739e;" vertex="1" parent="B_Na2INnCVECL0KGW9Hh-291">
          <mxGeometry width="176" height="18" as="geometry" />
        </mxCell>
        <mxCell id="B_Na2INnCVECL0KGW9Hh-293" value="&lt;font face=&quot;Times New Roman&quot; style=&quot;font-size: 6px;&quot;&gt;LSTM&lt;/font&gt;" style="text;strokeColor=none;align=center;fillColor=none;html=1;verticalAlign=middle;whiteSpace=wrap;rounded=0;fontSize=12;fontFamily=Helvetica;fontColor=default;" vertex="1" parent="B_Na2INnCVECL0KGW9Hh-291">
          <mxGeometry x="6" y="3" width="22.5" height="10" as="geometry" />
        </mxCell>
        <mxCell id="B_Na2INnCVECL0KGW9Hh-297" value="&lt;font style=&quot;font-size: 10px;&quot; face=&quot;Times New Roman&quot;&gt;&lt;span style=&quot;font-size: 10px;&quot;&gt;h&lt;/span&gt;&lt;sub style=&quot;font-size: 10px;&quot;&gt;2&lt;/sub&gt;&lt;/font&gt;" style="whiteSpace=wrap;html=1;aspect=fixed;rounded=1;strokeColor=#36393d;fillColor=#FBD9FF;" vertex="1" parent="B_Na2INnCVECL0KGW9Hh-291">
          <mxGeometry x="90" y="29" width="16.877028489001084" height="16.877028489001084" as="geometry" />
        </mxCell>
        <mxCell id="B_Na2INnCVECL0KGW9Hh-300" style="rounded=0;orthogonalLoop=1;jettySize=auto;html=1;fontFamily=Helvetica;fontSize=12;fontColor=default;strokeWidth=1;fillColor=#e1d5e7;strokeColor=#3584A6;entryX=0.5;entryY=0;entryDx=0;entryDy=0;" edge="1" parent="B_Na2INnCVECL0KGW9Hh-291" target="B_Na2INnCVECL0KGW9Hh-296">
          <mxGeometry relative="1" as="geometry">
            <mxPoint x="70" y="-11" as="sourcePoint" />
            <mxPoint x="71" y="18" as="targetPoint" />
          </mxGeometry>
        </mxCell>
        <mxCell id="B_Na2INnCVECL0KGW9Hh-302" style="rounded=0;orthogonalLoop=1;jettySize=auto;html=1;fontFamily=Helvetica;fontSize=12;fontColor=default;strokeWidth=1;fillColor=#e1d5e7;strokeColor=#3584A6;entryX=0.5;entryY=0;entryDx=0;entryDy=0;" edge="1" parent="B_Na2INnCVECL0KGW9Hh-291">
          <mxGeometry relative="1" as="geometry">
            <mxPoint x="163" y="-11" as="sourcePoint" />
            <mxPoint x="162" y="29" as="targetPoint" />
          </mxGeometry>
        </mxCell>
        <mxCell id="B_Na2INnCVECL0KGW9Hh-301" style="rounded=0;orthogonalLoop=1;jettySize=auto;html=1;fontFamily=Helvetica;fontSize=12;fontColor=default;strokeWidth=1;fillColor=#e1d5e7;strokeColor=#3584A6;entryX=0.5;entryY=0;entryDx=0;entryDy=0;" edge="1" parent="B_Na2INnCVECL0KGW9Hh-291">
          <mxGeometry relative="1" as="geometry">
            <mxPoint x="98.94" y="-12" as="sourcePoint" />
            <mxPoint x="97.94" y="28" as="targetPoint" />
          </mxGeometry>
        </mxCell>
        <mxCell id="B_Na2INnCVECL0KGW9Hh-322" value="&lt;span style=&quot;color: rgb(0, 0, 0); font-family: Helvetica; font-size: 12px; font-style: normal; font-variant-ligatures: normal; font-variant-caps: normal; font-weight: 400; letter-spacing: normal; orphans: 2; text-align: center; text-indent: 0px; text-transform: none; widows: 2; word-spacing: 0px; -webkit-text-stroke-width: 0px; background-color: rgb(251, 251, 251); text-decoration-thickness: initial; text-decoration-style: initial; text-decoration-color: initial; float: none; display: inline !important;&quot;&gt;...&lt;/span&gt;" style="text;whiteSpace=wrap;html=1;fontSize=12;fontFamily=Helvetica;fontColor=default;" vertex="1" parent="B_Na2INnCVECL0KGW9Hh-291">
          <mxGeometry x="120.00142857142845" y="19.438571428571322" width="38" height="36" as="geometry" />
        </mxCell>
        <mxCell id="B_Na2INnCVECL0KGW9Hh-178" style="rounded=0;orthogonalLoop=1;jettySize=auto;html=1;exitX=1;exitY=0.5;exitDx=0;exitDy=0;fontFamily=Helvetica;fontSize=12;fontColor=default;strokeWidth=2;fillColor=#e1d5e7;strokeColor=#3584A6;" edge="1" parent="1" source="B_Na2INnCVECL0KGW9Hh-92" target="B_Na2INnCVECL0KGW9Hh-294">
          <mxGeometry relative="1" as="geometry" />
        </mxCell>
        <mxCell id="B_Na2INnCVECL0KGW9Hh-295" style="edgeStyle=orthogonalEdgeStyle;rounded=0;orthogonalLoop=1;jettySize=auto;html=1;exitX=0.5;exitY=1;exitDx=0;exitDy=0;fontFamily=Helvetica;fontSize=12;fontColor=default;strokeWidth=2;fillColor=#bac8d3;strokeColor=#23445d;" edge="1" parent="1" source="B_Na2INnCVECL0KGW9Hh-294">
          <mxGeometry relative="1" as="geometry">
            <mxPoint x="570.4385142445005" y="318.9970284890011" as="sourcePoint" />
            <mxPoint x="495" y="427.12" as="targetPoint" />
            <Array as="points">
              <mxPoint x="570" y="317" />
              <mxPoint x="570" y="359" />
              <mxPoint x="495" y="359" />
            </Array>
          </mxGeometry>
        </mxCell>
        <mxCell id="B_Na2INnCVECL0KGW9Hh-294" value="&lt;font style=&quot;font-size: 10px;&quot; face=&quot;Times New Roman&quot;&gt;&lt;span style=&quot;font-size: 10px;&quot;&gt;h&lt;/span&gt;&lt;sub style=&quot;font-size: 10px;&quot;&gt;1&lt;/sub&gt;&lt;/font&gt;" style="whiteSpace=wrap;html=1;aspect=fixed;rounded=1;strokeColor=#36393d;fillColor=#FBD9FF;" vertex="1" parent="1">
          <mxGeometry x="563" y="300" width="16.877028489001084" height="16.877028489001084" as="geometry" />
        </mxCell>
        <mxCell id="B_Na2INnCVECL0KGW9Hh-296" value="&lt;font style=&quot;font-size: 10px;&quot; face=&quot;Times New Roman&quot;&gt;&lt;span style=&quot;font-size: 10px;&quot;&gt;h&lt;/span&gt;&lt;sub style=&quot;font-size: 10px;&quot;&gt;1&lt;/sub&gt;&lt;/font&gt;" style="whiteSpace=wrap;html=1;aspect=fixed;rounded=1;strokeColor=#36393d;fillColor=#FBD9FF;" vertex="1" parent="1">
          <mxGeometry x="330.19" y="741" width="16.877028489001084" height="16.877028489001084" as="geometry" />
        </mxCell>
        <mxCell id="B_Na2INnCVECL0KGW9Hh-298" value="&lt;font style=&quot;font-size: 10px;&quot; face=&quot;Times New Roman&quot;&gt;&lt;span style=&quot;font-size: 10px;&quot;&gt;h&lt;/span&gt;&lt;sub style=&quot;font-size: 10px;&quot;&gt;n&lt;/sub&gt;&lt;/font&gt;" style="whiteSpace=wrap;html=1;aspect=fixed;rounded=1;strokeColor=#36393d;fillColor=#FBD9FF;" vertex="1" parent="1">
          <mxGeometry x="424" y="741" width="16.877028489001084" height="16.877028489001084" as="geometry" />
        </mxCell>
        <mxCell id="B_Na2INnCVECL0KGW9Hh-305" value="" style="rounded=0;whiteSpace=wrap;html=1;strokeWidth=0;fontFamily=Helvetica;fontSize=12;fillColor=#ffcccc;strokeColor=#36393d;" vertex="1" parent="1">
          <mxGeometry x="271" y="772" width="369" height="22" as="geometry" />
        </mxCell>
        <mxCell id="B_Na2INnCVECL0KGW9Hh-306" value="&lt;font face=&quot;Times New Roman&quot;&gt;Concatenate&lt;/font&gt;" style="text;strokeColor=none;align=center;fillColor=none;html=1;verticalAlign=middle;whiteSpace=wrap;rounded=0;fontSize=12;fontFamily=Helvetica;fontColor=default;" vertex="1" parent="1">
          <mxGeometry x="381.25" y="777" width="22.5" height="10" as="geometry" />
        </mxCell>
        <mxCell id="B_Na2INnCVECL0KGW9Hh-307" value="C&lt;sub&gt;1&lt;/sub&gt;" style="rounded=1;whiteSpace=wrap;html=1;strokeWidth=1;fontFamily=Helvetica;fontSize=12;fillColor=#ffcc99;strokeColor=#FFCC99;" vertex="1" parent="1">
          <mxGeometry x="307.25" y="801" width="35.5" height="17" as="geometry" />
        </mxCell>
        <mxCell id="B_Na2INnCVECL0KGW9Hh-308" style="edgeStyle=none;rounded=0;orthogonalLoop=1;jettySize=auto;html=1;exitX=0;exitY=0;exitDx=0;exitDy=0;fontFamily=Helvetica;fontSize=12;fontColor=default;" edge="1" parent="1" source="B_Na2INnCVECL0KGW9Hh-307" target="B_Na2INnCVECL0KGW9Hh-307">
          <mxGeometry relative="1" as="geometry" />
        </mxCell>
        <mxCell id="B_Na2INnCVECL0KGW9Hh-309" value="C&lt;sub&gt;2&lt;/sub&gt;" style="rounded=1;whiteSpace=wrap;html=1;strokeWidth=1;fontFamily=Helvetica;fontSize=12;fillColor=#ffcc99;strokeColor=#FFCC99;" vertex="1" parent="1">
          <mxGeometry x="399.33" y="801" width="35.5" height="17" as="geometry" />
        </mxCell>
        <mxCell id="B_Na2INnCVECL0KGW9Hh-310" value="C&lt;sub&gt;n&lt;/sub&gt;" style="rounded=1;whiteSpace=wrap;html=1;strokeWidth=1;fontFamily=Helvetica;fontSize=12;fillColor=#ffcc99;strokeColor=#FFCC99;" vertex="1" parent="1">
          <mxGeometry x="565" y="803" width="35.5" height="17" as="geometry" />
        </mxCell>
        <mxCell id="B_Na2INnCVECL0KGW9Hh-311" style="rounded=0;orthogonalLoop=1;jettySize=auto;html=1;fontFamily=Helvetica;fontSize=12;fontColor=default;strokeWidth=2;fillColor=#bac8d3;strokeColor=#23445d;exitX=0.5;exitY=1;exitDx=0;exitDy=0;entryX=0.716;entryY=0.019;entryDx=0;entryDy=0;entryPerimeter=0;" edge="1" parent="1" source="B_Na2INnCVECL0KGW9Hh-280" target="B_Na2INnCVECL0KGW9Hh-305">
          <mxGeometry relative="1" as="geometry">
            <mxPoint x="732" y="720" as="sourcePoint" />
            <mxPoint x="531" y="772" as="targetPoint" />
          </mxGeometry>
        </mxCell>
        <mxCell id="B_Na2INnCVECL0KGW9Hh-312" style="rounded=0;orthogonalLoop=1;jettySize=auto;html=1;fontFamily=Helvetica;fontSize=12;fontColor=default;strokeWidth=2;fillColor=#bac8d3;strokeColor=#23445d;exitX=0.5;exitY=1;exitDx=0;exitDy=0;entryX=0.716;entryY=0.019;entryDx=0;entryDy=0;entryPerimeter=0;" edge="1" parent="1">
          <mxGeometry relative="1" as="geometry">
            <mxPoint x="563" y="701" as="sourcePoint" />
            <mxPoint x="562" y="772" as="targetPoint" />
          </mxGeometry>
        </mxCell>
        <mxCell id="B_Na2INnCVECL0KGW9Hh-313" style="rounded=0;orthogonalLoop=1;jettySize=auto;html=1;fontFamily=Helvetica;fontSize=12;fontColor=default;strokeWidth=2;fillColor=#bac8d3;strokeColor=#23445d;exitX=0.5;exitY=1;exitDx=0;exitDy=0;entryX=0.716;entryY=0.019;entryDx=0;entryDy=0;entryPerimeter=0;" edge="1" parent="1">
          <mxGeometry relative="1" as="geometry">
            <mxPoint x="615" y="701" as="sourcePoint" />
            <mxPoint x="614" y="772" as="targetPoint" />
          </mxGeometry>
        </mxCell>
        <mxCell id="B_Na2INnCVECL0KGW9Hh-314" style="edgeStyle=orthogonalEdgeStyle;rounded=0;orthogonalLoop=1;jettySize=auto;html=1;exitX=0.5;exitY=1;exitDx=0;exitDy=0;fontFamily=Helvetica;fontSize=12;fontColor=default;strokeWidth=2;fillColor=#d0cee2;strokeColor=#56517e;" edge="1" parent="1" source="B_Na2INnCVECL0KGW9Hh-296">
          <mxGeometry relative="1" as="geometry">
            <mxPoint x="335.89" y="768" as="sourcePoint" />
            <mxPoint x="536" y="744" as="targetPoint" />
            <Array as="points">
              <mxPoint x="339" y="768" />
              <mxPoint x="468" y="768" />
              <mxPoint x="468" y="744" />
            </Array>
          </mxGeometry>
        </mxCell>
        <mxCell id="B_Na2INnCVECL0KGW9Hh-315" style="edgeStyle=orthogonalEdgeStyle;rounded=0;orthogonalLoop=1;jettySize=auto;html=1;exitX=0.5;exitY=1;exitDx=0;exitDy=0;fontFamily=Helvetica;fontSize=12;fontColor=default;strokeWidth=2;fillColor=#d0cee2;strokeColor=#56517e;" edge="1" parent="1">
          <mxGeometry relative="1" as="geometry">
            <mxPoint x="368" y="757" as="sourcePoint" />
            <mxPoint x="565" y="743" as="targetPoint" />
            <Array as="points">
              <mxPoint x="368" y="767" />
              <mxPoint x="497" y="767" />
              <mxPoint x="497" y="743" />
            </Array>
          </mxGeometry>
        </mxCell>
        <mxCell id="B_Na2INnCVECL0KGW9Hh-316" style="edgeStyle=orthogonalEdgeStyle;rounded=0;orthogonalLoop=1;jettySize=auto;html=1;exitX=0.5;exitY=1;exitDx=0;exitDy=0;fontFamily=Helvetica;fontSize=12;fontColor=default;strokeWidth=2;fillColor=#d0cee2;strokeColor=#56517e;" edge="1" parent="1">
          <mxGeometry relative="1" as="geometry">
            <mxPoint x="433" y="758" as="sourcePoint" />
            <mxPoint x="613" y="744" as="targetPoint" />
            <Array as="points">
              <mxPoint x="433" y="768" />
              <mxPoint x="562" y="768" />
              <mxPoint x="562" y="744" />
            </Array>
          </mxGeometry>
        </mxCell>
        <mxCell id="B_Na2INnCVECL0KGW9Hh-323" value="&lt;span style=&quot;color: rgb(0, 0, 0); font-family: Helvetica; font-style: normal; font-variant-ligatures: normal; font-variant-caps: normal; font-weight: 400; letter-spacing: normal; orphans: 2; text-align: center; text-indent: 0px; text-transform: none; widows: 2; word-spacing: 0px; -webkit-text-stroke-width: 0px; background-color: rgb(251, 251, 251); text-decoration-thickness: initial; text-decoration-style: initial; text-decoration-color: initial; float: none; display: inline !important;&quot;&gt;&lt;font style=&quot;font-size: 20px;&quot;&gt;...&lt;/font&gt;&lt;/span&gt;" style="text;whiteSpace=wrap;html=1;fontSize=12;fontFamily=Helvetica;fontColor=default;" vertex="1" parent="1">
          <mxGeometry x="493.99857142857155" y="787" width="38" height="36" as="geometry" />
        </mxCell>
        <mxCell id="B_Na2INnCVECL0KGW9Hh-324" value="Decided&lt;br&gt;Action" style="rounded=1;whiteSpace=wrap;html=1;strokeWidth=1;fontFamily=Helvetica;fontSize=12;fillColor=#cdeb8b;strokeColor=#CDEB8B;" vertex="1" parent="1">
          <mxGeometry x="678" y="483.94" width="120" height="60" as="geometry" />
        </mxCell>
        <mxCell id="B_Na2INnCVECL0KGW9Hh-325" value="" style="endArrow=classic;html=1;rounded=0;fontFamily=Helvetica;fontSize=12;fontColor=default;strokeWidth=2;fillColor=#ffcccc;strokeColor=#FFCCFF;" edge="1" parent="1" source="B_Na2INnCVECL0KGW9Hh-87" target="B_Na2INnCVECL0KGW9Hh-324">
          <mxGeometry width="50" height="50" relative="1" as="geometry">
            <mxPoint x="699" y="523" as="sourcePoint" />
            <mxPoint x="749" y="473" as="targetPoint" />
          </mxGeometry>
        </mxCell>
      </root>
    </mxGraphModel>
  </diagram>
</mxfile>
